# xmcd
#
# Track frame offsets: 
#        151
#        20878
#        46087
#        66286
#        86385
#        101352
#        142014
#        175187
#        215361
#        238133
#        271957
#
# Disc length: 3957 seconds
#
# Revision: 1
# Processed by: cddbd v1.5.2PL0 Copyright (c) Steve Scherf et al.
# Submitted via: ExactAudioCopyFreeDBPlugin 1.0
#
DISCID=980f730b
DTITLE=Tommy Bolin - Live At Ebbest Field '74
DYEAR=1974
DGENRE=Blues
TTITLE0=You Know, You Know
TTITLE1=San Francisco River
TTITLE2=Shakin' All Night
TTITLE3=Whiskey Headed Woman
TTITLE4=Walkin' My Shadow
TTITLE5=Ain't No Sunshine
TTITLE6=Crazed Fandango
TTITLE7=Ain't Nobody's Fool
TTITLE8=Homeward Strut
TTITLE9=Honey Man
TTITLE10=Stratus
EXTD=YEAR: 1974
EXTT0=
EXTT1=
EXTT2=
EXTT3=
EXTT4=
EXTT5=
EXTT6=
EXTT7=
EXTT8=
EXTT9=
EXTT10=
PLAYORDER=
